<mxfile host="app.diagrams.net" modified="2021-05-30T07:03:15.188Z" agent="5.0 (Macintosh; Intel Mac OS X 10_15_7) AppleWebKit/537.36 (KHTML, like Gecko) Chrome/90.0.4430.212 Safari/537.36" etag="t-xyMibyGywxueNieW-n" version="14.7.2" type="github">
  <diagram id="60wdJ6hkTOIfb7OcDddj" name="第 1 页">
    <mxGraphModel dx="3720" dy="1154" grid="1" gridSize="10" guides="1" tooltips="1" connect="1" arrows="1" fold="1" page="1" pageScale="1" pageWidth="827" pageHeight="1169" math="0" shadow="0">
      <root>
        <mxCell id="0" />
        <mxCell id="1" parent="0" />
        <mxCell id="Z79GlN73_md7SsLJKY2w-28" value="&lt;span style=&quot;color: rgba(0 , 0 , 0 , 0) ; font-family: monospace ; font-size: 0px&quot;&gt;%3CmxGraphModel%3E%3Croot%3E%3CmxCell%20id%3D%220%22%2F%3E%3CmxCell%20id%3D%221%22%20parent%3D%220%22%2F%3E%3CmxCell%20id%3D%222%22%20value%3D%22%26lt%3Bfont%20color%3D%26quot%3B%23ffffff%26quot%3B%26gt%3B%E4%BA%8B%E4%BB%B6%26lt%3B%2Ffont%26gt%3B%22%20style%3D%22rounded%3D1%3BwhiteSpace%3Dwrap%3Bhtml%3D1%3BfillColor%3D%23FFB405%3BgradientColor%3Dnone%3BstrokeColor%3Dnone%3B%22%20vertex%3D%221%22%20parent%3D%221%22%3E%3CmxGeometry%20x%3D%22-230%22%20y%3D%22320%22%20width%3D%22120%22%20height%3D%2230%22%20as%3D%22geometry%22%2F%3E%3C%2FmxCell%3E%3C%2Froot%3E%3C%2FmxGraphModel%3E&lt;/span&gt;" style="rounded=1;whiteSpace=wrap;html=1;fillColor=#f5f5f5;fontColor=#333333;strokeColor=none;" vertex="1" parent="1">
          <mxGeometry x="-600" y="530" width="755" height="610" as="geometry" />
        </mxCell>
        <mxCell id="Z79GlN73_md7SsLJKY2w-75" value="" style="rounded=1;whiteSpace=wrap;html=1;dashed=1;strokeColor=#FFB405;strokeWidth=5;gradientColor=none;fillColor=none;" vertex="1" parent="1">
          <mxGeometry x="-585" y="760" width="115" height="300" as="geometry" />
        </mxCell>
        <mxCell id="Z79GlN73_md7SsLJKY2w-7" value="&lt;span style=&quot;color: rgba(0 , 0 , 0 , 0) ; font-family: monospace ; font-size: 0px&quot;&gt;%3CmxGraphModel%3E%3Croot%3E%3CmxCell%20id%3D%220%22%2F%3E%3CmxCell%20id%3D%221%22%20parent%3D%220%22%2F%3E%3CmxCell%20id%3D%222%22%20value%3D%22%26lt%3Bfont%20color%3D%26quot%3B%23ffffff%26quot%3B%26gt%3B%E4%BA%8B%E4%BB%B6%26lt%3B%2Ffont%26gt%3B%22%20style%3D%22rounded%3D1%3BwhiteSpace%3Dwrap%3Bhtml%3D1%3BfillColor%3D%23FFB405%3BgradientColor%3Dnone%3BstrokeColor%3Dnone%3B%22%20vertex%3D%221%22%20parent%3D%221%22%3E%3CmxGeometry%20x%3D%22-230%22%20y%3D%22320%22%20width%3D%22120%22%20height%3D%2230%22%20as%3D%22geometry%22%2F%3E%3C%2FmxCell%3E%3C%2Froot%3E%3C%2FmxGraphModel%3E&lt;/span&gt;" style="rounded=1;whiteSpace=wrap;html=1;fillColor=#f5f5f5;fontColor=#333333;strokeColor=none;" vertex="1" parent="1">
          <mxGeometry x="-590" y="250" width="750" height="270" as="geometry" />
        </mxCell>
        <mxCell id="Z79GlN73_md7SsLJKY2w-1" value="&lt;font style=&quot;font-size: 18px&quot; color=&quot;#ffffff&quot;&gt;&lt;b&gt;共识层&lt;/b&gt;&lt;/font&gt;" style="rounded=1;whiteSpace=wrap;html=1;fillColor=#FFB405;strokeColor=none;" vertex="1" parent="1">
          <mxGeometry x="-680" y="250" width="90" height="270" as="geometry" />
        </mxCell>
        <mxCell id="Z79GlN73_md7SsLJKY2w-5" value="&lt;font color=&quot;#ffffff&quot;&gt;&lt;span style=&quot;font-size: 18px&quot;&gt;&lt;b&gt;半自动埋点（共建）&lt;/b&gt;&lt;/span&gt;&lt;/font&gt;" style="rounded=0;whiteSpace=wrap;html=1;fillColor=#FFB405;strokeColor=none;" vertex="1" parent="1">
          <mxGeometry x="-850" y="2130" width="190" height="60" as="geometry" />
        </mxCell>
        <mxCell id="Z79GlN73_md7SsLJKY2w-6" value="&lt;font color=&quot;#ffffff&quot;&gt;&lt;span style=&quot;font-size: 18px&quot;&gt;&lt;b&gt;埋点数据提取（）&lt;/b&gt;&lt;/span&gt;&lt;/font&gt;" style="rounded=0;whiteSpace=wrap;html=1;fillColor=#FFB405;strokeColor=none;" vertex="1" parent="1">
          <mxGeometry x="-920" y="1800" width="190" height="60" as="geometry" />
        </mxCell>
        <mxCell id="Z79GlN73_md7SsLJKY2w-8" value="&lt;font color=&quot;#ffffff&quot;&gt;&lt;span style=&quot;font-size: 18px&quot;&gt;&lt;b&gt;埋点数据提取（）&lt;/b&gt;&lt;/span&gt;&lt;/font&gt;" style="rounded=0;whiteSpace=wrap;html=1;fillColor=#FFB405;strokeColor=none;" vertex="1" parent="1">
          <mxGeometry x="-930" y="1960" width="190" height="60" as="geometry" />
        </mxCell>
        <mxCell id="Z79GlN73_md7SsLJKY2w-10" value="&lt;font color=&quot;#ffffff&quot; size=&quot;1&quot;&gt;&lt;b style=&quot;font-size: 18px&quot;&gt;共建层&lt;/b&gt;&lt;/font&gt;" style="rounded=1;whiteSpace=wrap;html=1;fillColor=#FFB405;strokeColor=none;" vertex="1" parent="1">
          <mxGeometry x="-680" y="530" width="85" height="610" as="geometry" />
        </mxCell>
        <mxCell id="Z79GlN73_md7SsLJKY2w-11" value="&lt;font color=&quot;#ffffff&quot; style=&quot;font-size: 18px&quot;&gt;共享层&lt;/font&gt;" style="rounded=1;whiteSpace=wrap;html=1;fillColor=#FFB405;strokeColor=none;" vertex="1" parent="1">
          <mxGeometry x="-680" y="1150" width="82.5" height="140" as="geometry" />
        </mxCell>
        <mxCell id="Z79GlN73_md7SsLJKY2w-3" value="&lt;font style=&quot;font-size: 18px&quot; color=&quot;#ffffff&quot;&gt;&lt;span&gt;埋点知识库&lt;/span&gt;&lt;/font&gt;" style="rounded=1;whiteSpace=wrap;html=1;fillColor=#FFB405;strokeColor=none;fontStyle=1" vertex="1" parent="1">
          <mxGeometry x="-540" y="260" width="650" height="30" as="geometry" />
        </mxCell>
        <mxCell id="Z79GlN73_md7SsLJKY2w-12" value="&lt;font color=&quot;#ffffff&quot;&gt;埋点数据需求&lt;/font&gt;" style="rounded=0;whiteSpace=wrap;html=1;fillColor=#FFB405;gradientColor=none;strokeColor=none;" vertex="1" parent="1">
          <mxGeometry x="-570" y="720" width="80" height="30" as="geometry" />
        </mxCell>
        <mxCell id="Z79GlN73_md7SsLJKY2w-14" value="&lt;font color=&quot;#ffffff&quot;&gt;&lt;span style=&quot;font-size: 18px&quot;&gt;埋点字段名词解释&lt;/span&gt;&lt;/font&gt;" style="rounded=1;whiteSpace=wrap;html=1;fillColor=#FFB405;strokeColor=none;" vertex="1" parent="1">
          <mxGeometry x="-310" y="310" width="190" height="23.75" as="geometry" />
        </mxCell>
        <mxCell id="Z79GlN73_md7SsLJKY2w-24" style="edgeStyle=orthogonalEdgeStyle;rounded=0;orthogonalLoop=1;jettySize=auto;html=1;exitX=0.5;exitY=1;exitDx=0;exitDy=0;" edge="1" parent="1" source="Z79GlN73_md7SsLJKY2w-14" target="Z79GlN73_md7SsLJKY2w-14">
          <mxGeometry relative="1" as="geometry" />
        </mxCell>
        <mxCell id="Z79GlN73_md7SsLJKY2w-25" value="" style="group" vertex="1" connectable="0" parent="1">
          <mxGeometry x="-565" y="350" width="695" height="150" as="geometry" />
        </mxCell>
        <mxCell id="Z79GlN73_md7SsLJKY2w-23" value="" style="rounded=1;whiteSpace=wrap;html=1;gradientColor=none;dashed=1;fillColor=none;strokeColor=#FFB405;strokeWidth=5;" vertex="1" parent="Z79GlN73_md7SsLJKY2w-25">
          <mxGeometry width="695.0000000000001" height="150" as="geometry" />
        </mxCell>
        <mxCell id="Z79GlN73_md7SsLJKY2w-13" value="&lt;font color=&quot;#ffffff&quot;&gt;类型&lt;/font&gt;" style="rounded=1;whiteSpace=wrap;html=1;fillColor=#FFB405;gradientColor=none;strokeColor=none;" vertex="1" parent="Z79GlN73_md7SsLJKY2w-25">
          <mxGeometry x="17.375" y="50" width="139" height="30" as="geometry" />
        </mxCell>
        <mxCell id="Z79GlN73_md7SsLJKY2w-15" value="&lt;font color=&quot;#ffffff&quot;&gt;&lt;span style=&quot;font-size: 18px&quot;&gt;点位检索&lt;/span&gt;&lt;/font&gt;" style="rounded=1;whiteSpace=wrap;html=1;fillColor=#FFB405;strokeColor=none;" vertex="1" parent="Z79GlN73_md7SsLJKY2w-25">
          <mxGeometry x="272.20833333333337" y="10" width="139" height="23.75" as="geometry" />
        </mxCell>
        <mxCell id="Z79GlN73_md7SsLJKY2w-16" value="&lt;font color=&quot;#ffffff&quot;&gt;模块&lt;/font&gt;" style="rounded=1;whiteSpace=wrap;html=1;fillColor=#FFB405;gradientColor=none;strokeColor=none;" vertex="1" parent="Z79GlN73_md7SsLJKY2w-25">
          <mxGeometry x="191.12500000000003" y="50" width="139" height="30" as="geometry" />
        </mxCell>
        <mxCell id="Z79GlN73_md7SsLJKY2w-17" value="&lt;font color=&quot;#ffffff&quot;&gt;页面&lt;/font&gt;" style="rounded=1;whiteSpace=wrap;html=1;fillColor=#FFB405;gradientColor=none;strokeColor=none;" vertex="1" parent="Z79GlN73_md7SsLJKY2w-25">
          <mxGeometry x="364.87500000000006" y="50" width="139" height="30" as="geometry" />
        </mxCell>
        <mxCell id="Z79GlN73_md7SsLJKY2w-18" value="&lt;font color=&quot;#ffffff&quot;&gt;事件&lt;/font&gt;" style="rounded=1;whiteSpace=wrap;html=1;fillColor=#FFB405;gradientColor=none;strokeColor=none;" vertex="1" parent="Z79GlN73_md7SsLJKY2w-25">
          <mxGeometry x="538.625" y="50" width="139" height="30" as="geometry" />
        </mxCell>
        <mxCell id="Z79GlN73_md7SsLJKY2w-19" value="&lt;font color=&quot;#ffffff&quot;&gt;场景&lt;/font&gt;" style="rounded=1;whiteSpace=wrap;html=1;fillColor=#FFB405;gradientColor=none;strokeColor=none;" vertex="1" parent="Z79GlN73_md7SsLJKY2w-25">
          <mxGeometry x="86.87500000000001" y="100" width="139" height="30" as="geometry" />
        </mxCell>
        <mxCell id="Z79GlN73_md7SsLJKY2w-20" value="&lt;font color=&quot;#ffffff&quot;&gt;状态&lt;/font&gt;" style="rounded=1;whiteSpace=wrap;html=1;fillColor=#FFB405;gradientColor=none;strokeColor=none;" vertex="1" parent="Z79GlN73_md7SsLJKY2w-25">
          <mxGeometry x="260.625" y="100" width="139" height="30" as="geometry" />
        </mxCell>
        <mxCell id="Z79GlN73_md7SsLJKY2w-21" value="&lt;font color=&quot;#ffffff&quot;&gt;需求&lt;/font&gt;" style="rounded=1;whiteSpace=wrap;html=1;fillColor=#FFB405;gradientColor=none;strokeColor=none;" vertex="1" parent="Z79GlN73_md7SsLJKY2w-25">
          <mxGeometry x="457.5416666666667" y="100" width="139" height="30" as="geometry" />
        </mxCell>
        <mxCell id="Z79GlN73_md7SsLJKY2w-29" value="&lt;font style=&quot;font-size: 18px&quot; color=&quot;#ffffff&quot;&gt;&lt;span&gt;半自动埋点&lt;/span&gt;&lt;/font&gt;" style="rounded=1;whiteSpace=wrap;html=1;fillColor=#FFB405;strokeColor=none;fontStyle=1" vertex="1" parent="1">
          <mxGeometry x="-540" y="555" width="650" height="30" as="geometry" />
        </mxCell>
        <mxCell id="Z79GlN73_md7SsLJKY2w-30" value="&lt;font color=&quot;#ffffff&quot; style=&quot;font-size: 18px&quot;&gt;半自动埋点流程&lt;/font&gt;" style="rounded=1;whiteSpace=wrap;html=1;fillColor=#FFB405;gradientColor=none;strokeColor=none;" vertex="1" parent="1">
          <mxGeometry x="-282.5" y="600" width="135" height="30" as="geometry" />
        </mxCell>
        <mxCell id="Z79GlN73_md7SsLJKY2w-31" value="&lt;font color=&quot;#ffffff&quot; style=&quot;font-size: 14px&quot;&gt;提出需求&lt;/font&gt;" style="rounded=1;whiteSpace=wrap;html=1;fillColor=#FFB405;gradientColor=none;strokeColor=none;" vertex="1" parent="1">
          <mxGeometry x="-580" y="675" width="100" height="30" as="geometry" />
        </mxCell>
        <mxCell id="Z79GlN73_md7SsLJKY2w-32" value="&lt;font color=&quot;#ffffff&quot; style=&quot;font-size: 14px&quot;&gt;评审需求&lt;/font&gt;" style="rounded=1;whiteSpace=wrap;html=1;fillColor=#FFB405;gradientColor=none;strokeColor=none;" vertex="1" parent="1">
          <mxGeometry x="-340" y="675" width="100" height="30" as="geometry" />
        </mxCell>
        <mxCell id="Z79GlN73_md7SsLJKY2w-33" value="&lt;font color=&quot;#ffffff&quot; style=&quot;font-size: 14px&quot;&gt;评估需求&lt;/font&gt;" style="rounded=1;whiteSpace=wrap;html=1;fillColor=#FFB405;gradientColor=none;strokeColor=none;" vertex="1" parent="1">
          <mxGeometry x="-465" y="675" width="100" height="30" as="geometry" />
        </mxCell>
        <mxCell id="Z79GlN73_md7SsLJKY2w-34" value="&lt;font color=&quot;#ffffff&quot; style=&quot;font-size: 14px&quot;&gt;进入研发&lt;/font&gt;" style="rounded=1;whiteSpace=wrap;html=1;fillColor=#FFB405;gradientColor=none;strokeColor=none;" vertex="1" parent="1">
          <mxGeometry x="-220" y="675" width="100" height="30" as="geometry" />
        </mxCell>
        <mxCell id="Z79GlN73_md7SsLJKY2w-35" value="&lt;font color=&quot;#ffffff&quot; style=&quot;font-size: 14px&quot;&gt;测试回归&lt;/font&gt;" style="rounded=1;whiteSpace=wrap;html=1;fillColor=#FFB405;gradientColor=none;strokeColor=none;" vertex="1" parent="1">
          <mxGeometry x="-100" y="675" width="100" height="30" as="geometry" />
        </mxCell>
        <mxCell id="Z79GlN73_md7SsLJKY2w-36" value="&lt;font color=&quot;#ffffff&quot; style=&quot;font-size: 14px&quot;&gt;产品审核&lt;/font&gt;" style="rounded=1;whiteSpace=wrap;html=1;fillColor=#FFB405;gradientColor=none;strokeColor=none;" vertex="1" parent="1">
          <mxGeometry x="20" y="675" width="100" height="30" as="geometry" />
        </mxCell>
        <mxCell id="Z79GlN73_md7SsLJKY2w-38" value="&lt;font color=&quot;#ffffff&quot;&gt;事件类型&lt;/font&gt;" style="rounded=0;whiteSpace=wrap;html=1;fillColor=#FFB405;gradientColor=none;strokeColor=none;" vertex="1" parent="1">
          <mxGeometry x="-570" y="765" width="80" height="30" as="geometry" />
        </mxCell>
        <mxCell id="Z79GlN73_md7SsLJKY2w-39" value="&lt;font color=&quot;#ffffff&quot;&gt;埋点模块&lt;/font&gt;" style="rounded=0;whiteSpace=wrap;html=1;fillColor=#FFB405;gradientColor=none;strokeColor=none;" vertex="1" parent="1">
          <mxGeometry x="-570" y="815" width="80" height="30" as="geometry" />
        </mxCell>
        <mxCell id="Z79GlN73_md7SsLJKY2w-40" value="&lt;font color=&quot;#ffffff&quot;&gt;埋点页面&lt;/font&gt;" style="rounded=0;whiteSpace=wrap;html=1;fillColor=#FFB405;gradientColor=none;strokeColor=none;" vertex="1" parent="1">
          <mxGeometry x="-570" y="865" width="80" height="30" as="geometry" />
        </mxCell>
        <mxCell id="Z79GlN73_md7SsLJKY2w-41" value="&lt;font color=&quot;#ffffff&quot;&gt;埋点事件&lt;/font&gt;" style="rounded=0;whiteSpace=wrap;html=1;fillColor=#FFB405;gradientColor=none;strokeColor=none;" vertex="1" parent="1">
          <mxGeometry x="-570" y="915" width="80" height="30" as="geometry" />
        </mxCell>
        <mxCell id="Z79GlN73_md7SsLJKY2w-42" value="&lt;font color=&quot;#ffffff&quot;&gt;事件场景&lt;/font&gt;" style="rounded=0;whiteSpace=wrap;html=1;fillColor=#FFB405;gradientColor=none;strokeColor=none;" vertex="1" parent="1">
          <mxGeometry x="-570" y="965" width="80" height="30" as="geometry" />
        </mxCell>
        <mxCell id="Z79GlN73_md7SsLJKY2w-43" value="&lt;font color=&quot;#ffffff&quot;&gt;特殊字段&lt;/font&gt;" style="rounded=0;whiteSpace=wrap;html=1;fillColor=#FFB405;gradientColor=none;strokeColor=none;" vertex="1" parent="1">
          <mxGeometry x="-570" y="1015" width="80" height="30" as="geometry" />
        </mxCell>
        <mxCell id="Z79GlN73_md7SsLJKY2w-44" value="&lt;font color=&quot;#ffffff&quot;&gt;数据产品评估&lt;/font&gt;" style="rounded=0;whiteSpace=wrap;html=1;fillColor=#FFB405;gradientColor=none;strokeColor=none;" vertex="1" parent="1">
          <mxGeometry x="-458" y="720" width="80" height="30" as="geometry" />
        </mxCell>
        <mxCell id="Z79GlN73_md7SsLJKY2w-55" value="&lt;font color=&quot;#ffffff&quot;&gt;埋点方案确认&lt;/font&gt;" style="rounded=0;whiteSpace=wrap;html=1;fillColor=#FFB405;gradientColor=none;strokeColor=none;" vertex="1" parent="1">
          <mxGeometry x="-458" y="765" width="80" height="30" as="geometry" />
        </mxCell>
        <mxCell id="Z79GlN73_md7SsLJKY2w-56" value="&lt;font color=&quot;#ffffff&quot;&gt;业务产品确认&lt;/font&gt;" style="rounded=0;whiteSpace=wrap;html=1;fillColor=#FFB405;gradientColor=none;strokeColor=none;" vertex="1" parent="1">
          <mxGeometry x="-330" y="720" width="80" height="30" as="geometry" />
        </mxCell>
        <mxCell id="Z79GlN73_md7SsLJKY2w-57" value="&lt;font color=&quot;#ffffff&quot;&gt;数据研发确认&lt;/font&gt;" style="rounded=0;whiteSpace=wrap;html=1;fillColor=#FFB405;gradientColor=none;strokeColor=none;" vertex="1" parent="1">
          <mxGeometry x="-330" y="765" width="80" height="30" as="geometry" />
        </mxCell>
        <mxCell id="Z79GlN73_md7SsLJKY2w-58" value="&lt;font color=&quot;#ffffff&quot;&gt;上传页面截图&lt;/font&gt;" style="rounded=0;whiteSpace=wrap;html=1;fillColor=#FFB405;gradientColor=none;strokeColor=none;" vertex="1" parent="1">
          <mxGeometry x="-570" y="1065" width="80" height="30" as="geometry" />
        </mxCell>
        <mxCell id="Z79GlN73_md7SsLJKY2w-59" value="&lt;font color=&quot;#ffffff&quot;&gt;研发确认&lt;/font&gt;" style="rounded=0;whiteSpace=wrap;html=1;fillColor=#FFB405;gradientColor=none;strokeColor=none;" vertex="1" parent="1">
          <mxGeometry x="-330" y="815" width="80" height="30" as="geometry" />
        </mxCell>
        <mxCell id="Z79GlN73_md7SsLJKY2w-60" value="&lt;font color=&quot;#ffffff&quot;&gt;点位完成确认&lt;/font&gt;" style="rounded=0;whiteSpace=wrap;html=1;fillColor=#FFB405;gradientColor=none;strokeColor=none;" vertex="1" parent="1">
          <mxGeometry x="-210" y="720" width="80" height="30" as="geometry" />
        </mxCell>
        <mxCell id="Z79GlN73_md7SsLJKY2w-61" value="&lt;font color=&quot;#ffffff&quot;&gt;测试确认&lt;/font&gt;" style="rounded=0;whiteSpace=wrap;html=1;fillColor=#FFB405;gradientColor=none;strokeColor=none;" vertex="1" parent="1">
          <mxGeometry x="-90" y="720" width="80" height="30" as="geometry" />
        </mxCell>
        <mxCell id="Z79GlN73_md7SsLJKY2w-62" value="&lt;font color=&quot;#ffffff&quot;&gt;业务产品确认&lt;/font&gt;" style="rounded=0;whiteSpace=wrap;html=1;fillColor=#FFB405;gradientColor=none;strokeColor=none;" vertex="1" parent="1">
          <mxGeometry x="30" y="720" width="80" height="30" as="geometry" />
        </mxCell>
        <mxCell id="Z79GlN73_md7SsLJKY2w-63" value="&lt;font color=&quot;#ffffff&quot;&gt;点位同步ddr&lt;/font&gt;" style="rounded=0;whiteSpace=wrap;html=1;fillColor=#FFB405;gradientColor=none;strokeColor=none;" vertex="1" parent="1">
          <mxGeometry x="30" y="765" width="80" height="30" as="geometry" />
        </mxCell>
        <mxCell id="Z79GlN73_md7SsLJKY2w-66" value="&lt;b&gt;&lt;font style=&quot;font-size: 17px&quot; color=&quot;#ffffff&quot;&gt;2&lt;/font&gt;&lt;/b&gt;" style="ellipse;whiteSpace=wrap;html=1;aspect=fixed;rounded=1;dashed=1;strokeWidth=5;gradientColor=none;fillColor=#FFB405;strokeColor=none;" vertex="1" parent="1">
          <mxGeometry x="-433" y="640" width="30" height="30" as="geometry" />
        </mxCell>
        <mxCell id="Z79GlN73_md7SsLJKY2w-67" value="&lt;b&gt;&lt;font style=&quot;font-size: 17px&quot; color=&quot;#ffffff&quot;&gt;1&lt;/font&gt;&lt;/b&gt;" style="ellipse;whiteSpace=wrap;html=1;aspect=fixed;rounded=1;dashed=1;strokeWidth=5;gradientColor=none;fillColor=#FFB405;strokeColor=none;" vertex="1" parent="1">
          <mxGeometry x="-545" y="640" width="30" height="30" as="geometry" />
        </mxCell>
        <mxCell id="Z79GlN73_md7SsLJKY2w-68" value="&lt;b&gt;&lt;font style=&quot;font-size: 17px&quot; color=&quot;#ffffff&quot;&gt;3&lt;/font&gt;&lt;/b&gt;" style="ellipse;whiteSpace=wrap;html=1;aspect=fixed;rounded=1;dashed=1;strokeWidth=5;gradientColor=none;fillColor=#FFB405;strokeColor=none;" vertex="1" parent="1">
          <mxGeometry x="-305" y="640" width="30" height="30" as="geometry" />
        </mxCell>
        <mxCell id="Z79GlN73_md7SsLJKY2w-69" value="&lt;b&gt;&lt;font style=&quot;font-size: 17px&quot; color=&quot;#ffffff&quot;&gt;4&lt;/font&gt;&lt;/b&gt;" style="ellipse;whiteSpace=wrap;html=1;aspect=fixed;rounded=1;dashed=1;strokeWidth=5;gradientColor=none;fillColor=#FFB405;strokeColor=none;" vertex="1" parent="1">
          <mxGeometry x="-177.5" y="640" width="30" height="30" as="geometry" />
        </mxCell>
        <mxCell id="Z79GlN73_md7SsLJKY2w-70" value="&lt;b&gt;&lt;font style=&quot;font-size: 17px&quot; color=&quot;#ffffff&quot;&gt;5&lt;/font&gt;&lt;/b&gt;" style="ellipse;whiteSpace=wrap;html=1;aspect=fixed;rounded=1;dashed=1;strokeWidth=5;gradientColor=none;fillColor=#FFB405;strokeColor=none;" vertex="1" parent="1">
          <mxGeometry x="-65" y="640" width="30" height="30" as="geometry" />
        </mxCell>
        <mxCell id="Z79GlN73_md7SsLJKY2w-71" value="&lt;b&gt;&lt;font style=&quot;font-size: 17px&quot; color=&quot;#ffffff&quot;&gt;6&lt;/font&gt;&lt;/b&gt;" style="ellipse;whiteSpace=wrap;html=1;aspect=fixed;rounded=1;dashed=1;strokeWidth=5;gradientColor=none;fillColor=#FFB405;strokeColor=none;" vertex="1" parent="1">
          <mxGeometry x="55" y="640" width="30" height="30" as="geometry" />
        </mxCell>
        <mxCell id="Z79GlN73_md7SsLJKY2w-73" value="&lt;font color=&quot;#ffffff&quot;&gt;&lt;span style=&quot;font-size: 18px&quot;&gt;&lt;b&gt;埋点数据提取（）&lt;/b&gt;&lt;/span&gt;&lt;/font&gt;" style="rounded=0;whiteSpace=wrap;html=1;fillColor=#FFB405;strokeColor=none;" vertex="1" parent="1">
          <mxGeometry x="-910" y="1650" width="190" height="60" as="geometry" />
        </mxCell>
        <mxCell id="Z79GlN73_md7SsLJKY2w-74" value="" style="label;whiteSpace=wrap;html=1;image=img/clipart/Gear_128x128.png;rounded=1;dashed=1;strokeWidth=5;gradientColor=none;fillColor=none;strokeColor=#FFB405;" vertex="1" parent="1">
          <mxGeometry x="-413" y="860" width="533" height="270" as="geometry" />
        </mxCell>
        <mxCell id="Z79GlN73_md7SsLJKY2w-76" value="&lt;font color=&quot;#ffffff&quot;&gt;半自动埋点功能概述&lt;/font&gt;" style="rounded=1;whiteSpace=wrap;html=1;dashed=1;strokeWidth=5;fillColor=#FFB405;gradientColor=none;strokeColor=none;" vertex="1" parent="1">
          <mxGeometry x="-320" y="870" width="370" height="35" as="geometry" />
        </mxCell>
        <mxCell id="Z79GlN73_md7SsLJKY2w-77" value="" style="shape=flexArrow;endArrow=classic;html=1;strokeColor=none;fillColor=#FFB405;" edge="1" parent="1">
          <mxGeometry width="50" height="50" relative="1" as="geometry">
            <mxPoint x="-465" y="929.5" as="sourcePoint" />
            <mxPoint x="-417" y="930" as="targetPoint" />
            <Array as="points">
              <mxPoint x="-432" y="929.5" />
            </Array>
          </mxGeometry>
        </mxCell>
        <mxCell id="Z79GlN73_md7SsLJKY2w-95" value="" style="edgeStyle=orthogonalEdgeStyle;rounded=0;orthogonalLoop=1;jettySize=auto;html=1;fillColor=#FFB405;" edge="1" parent="1" source="Z79GlN73_md7SsLJKY2w-79" target="Z79GlN73_md7SsLJKY2w-94">
          <mxGeometry relative="1" as="geometry" />
        </mxCell>
        <mxCell id="Z79GlN73_md7SsLJKY2w-79" value="点位基本信息" style="swimlane;fontStyle=0;childLayout=stackLayout;horizontal=1;startSize=26;horizontalStack=0;resizeParent=1;resizeParentMax=0;resizeLast=0;collapsible=1;marginBottom=0;rounded=1;strokeColor=#FFB405;strokeWidth=5;fillColor=none;gradientColor=none;" vertex="1" parent="1">
          <mxGeometry x="-320" y="920" width="100" height="104" as="geometry" />
        </mxCell>
        <mxCell id="Z79GlN73_md7SsLJKY2w-80" value="PV、点击、曝光" style="text;strokeColor=none;fillColor=none;align=left;verticalAlign=top;spacingLeft=4;spacingRight=4;overflow=hidden;rotatable=0;points=[[0,0.5],[1,0.5]];portConstraint=eastwest;" vertex="1" parent="Z79GlN73_md7SsLJKY2w-79">
          <mxGeometry y="26" width="100" height="26" as="geometry" />
        </mxCell>
        <mxCell id="Z79GlN73_md7SsLJKY2w-81" value="点位位置信息" style="text;strokeColor=none;fillColor=none;align=left;verticalAlign=top;spacingLeft=4;spacingRight=4;overflow=hidden;rotatable=0;points=[[0,0.5],[1,0.5]];portConstraint=eastwest;" vertex="1" parent="Z79GlN73_md7SsLJKY2w-79">
          <mxGeometry y="52" width="100" height="26" as="geometry" />
        </mxCell>
        <mxCell id="Z79GlN73_md7SsLJKY2w-82" value="点位名称信息" style="text;strokeColor=none;fillColor=none;align=left;verticalAlign=top;spacingLeft=4;spacingRight=4;overflow=hidden;rotatable=0;points=[[0,0.5],[1,0.5]];portConstraint=eastwest;" vertex="1" parent="Z79GlN73_md7SsLJKY2w-79">
          <mxGeometry y="78" width="100" height="26" as="geometry" />
        </mxCell>
        <mxCell id="Z79GlN73_md7SsLJKY2w-97" value="" style="edgeStyle=orthogonalEdgeStyle;rounded=0;orthogonalLoop=1;jettySize=auto;html=1;fillColor=#FFB405;" edge="1" parent="1" source="Z79GlN73_md7SsLJKY2w-83" target="Z79GlN73_md7SsLJKY2w-96">
          <mxGeometry relative="1" as="geometry" />
        </mxCell>
        <mxCell id="Z79GlN73_md7SsLJKY2w-83" value="点位场景信息" style="swimlane;fontStyle=0;childLayout=stackLayout;horizontal=1;startSize=26;horizontalStack=0;resizeParent=1;resizeParentMax=0;resizeLast=0;collapsible=1;marginBottom=0;rounded=1;strokeColor=#FFB405;strokeWidth=5;fillColor=none;gradientColor=none;" vertex="1" parent="1">
          <mxGeometry x="-185" y="920" width="100" height="104" as="geometry" />
        </mxCell>
        <mxCell id="Z79GlN73_md7SsLJKY2w-84" value="商详" style="text;strokeColor=none;fillColor=none;align=left;verticalAlign=top;spacingLeft=4;spacingRight=4;overflow=hidden;rotatable=0;points=[[0,0.5],[1,0.5]];portConstraint=eastwest;" vertex="1" parent="Z79GlN73_md7SsLJKY2w-83">
          <mxGeometry y="26" width="100" height="26" as="geometry" />
        </mxCell>
        <mxCell id="Z79GlN73_md7SsLJKY2w-85" value="优惠券" style="text;strokeColor=none;fillColor=none;align=left;verticalAlign=top;spacingLeft=4;spacingRight=4;overflow=hidden;rotatable=0;points=[[0,0.5],[1,0.5]];portConstraint=eastwest;" vertex="1" parent="Z79GlN73_md7SsLJKY2w-83">
          <mxGeometry y="52" width="100" height="26" as="geometry" />
        </mxCell>
        <mxCell id="Z79GlN73_md7SsLJKY2w-86" value="品类········" style="text;strokeColor=none;fillColor=none;align=left;verticalAlign=top;spacingLeft=4;spacingRight=4;overflow=hidden;rotatable=0;points=[[0,0.5],[1,0.5]];portConstraint=eastwest;" vertex="1" parent="Z79GlN73_md7SsLJKY2w-83">
          <mxGeometry y="78" width="100" height="26" as="geometry" />
        </mxCell>
        <mxCell id="Z79GlN73_md7SsLJKY2w-99" value="" style="edgeStyle=orthogonalEdgeStyle;rounded=0;orthogonalLoop=1;jettySize=auto;html=1;fillColor=#FFB405;" edge="1" parent="1" source="Z79GlN73_md7SsLJKY2w-88" target="Z79GlN73_md7SsLJKY2w-98">
          <mxGeometry relative="1" as="geometry" />
        </mxCell>
        <mxCell id="Z79GlN73_md7SsLJKY2w-88" value="点位标签" style="swimlane;fontStyle=0;childLayout=stackLayout;horizontal=1;startSize=26;horizontalStack=0;resizeParent=1;resizeParentMax=0;resizeLast=0;collapsible=1;marginBottom=0;rounded=1;strokeColor=#FFB405;strokeWidth=5;fillColor=none;gradientColor=none;" vertex="1" parent="1">
          <mxGeometry x="-45" y="920" width="100" height="78" as="geometry" />
        </mxCell>
        <mxCell id="Z79GlN73_md7SsLJKY2w-89" value="需求标签" style="text;strokeColor=none;fillColor=none;align=left;verticalAlign=top;spacingLeft=4;spacingRight=4;overflow=hidden;rotatable=0;points=[[0,0.5],[1,0.5]];portConstraint=eastwest;" vertex="1" parent="Z79GlN73_md7SsLJKY2w-88">
          <mxGeometry y="26" width="100" height="26" as="geometry" />
        </mxCell>
        <mxCell id="Z79GlN73_md7SsLJKY2w-90" value="提数标签" style="text;strokeColor=none;fillColor=none;align=left;verticalAlign=top;spacingLeft=4;spacingRight=4;overflow=hidden;rotatable=0;points=[[0,0.5],[1,0.5]];portConstraint=eastwest;" vertex="1" parent="Z79GlN73_md7SsLJKY2w-88">
          <mxGeometry y="52" width="100" height="26" as="geometry" />
        </mxCell>
        <mxCell id="Z79GlN73_md7SsLJKY2w-94" value="记录点位基本信息" style="shape=document;whiteSpace=wrap;html=1;boundedLbl=1;rounded=1;fontStyle=0;strokeColor=#FFB405;strokeWidth=5;fillColor=none;startSize=26;" vertex="1" parent="1">
          <mxGeometry x="-325" y="1050" width="110" height="60" as="geometry" />
        </mxCell>
        <mxCell id="Z79GlN73_md7SsLJKY2w-96" value="根据场景选择填充预制参数信息，自动生成参数方案" style="shape=document;whiteSpace=wrap;html=1;boundedLbl=1;rounded=1;fontStyle=0;strokeColor=#FFB405;strokeWidth=5;fillColor=none;startSize=26;" vertex="1" parent="1">
          <mxGeometry x="-187.5" y="1050" width="105" height="75" as="geometry" />
        </mxCell>
        <mxCell id="Z79GlN73_md7SsLJKY2w-98" value="为埋点打上标签，根据标签可将点位联系在一起，方便制作简单漏斗" style="shape=document;whiteSpace=wrap;html=1;boundedLbl=1;rounded=1;fontStyle=0;strokeColor=#FFB405;strokeWidth=5;fillColor=none;startSize=26;" vertex="1" parent="1">
          <mxGeometry x="-60" y="1050" width="130" height="70" as="geometry" />
        </mxCell>
        <mxCell id="Z79GlN73_md7SsLJKY2w-100" value="&lt;span style=&quot;color: rgba(0 , 0 , 0 , 0) ; font-family: monospace ; font-size: 0px&quot;&gt;%3CmxGraphModel%3E%3Croot%3E%3CmxCell%20id%3D%220%22%2F%3E%3CmxCell%20id%3D%221%22%20parent%3D%220%22%2F%3E%3CmxCell%20id%3D%222%22%20value%3D%22%26lt%3Bfont%20color%3D%26quot%3B%23ffffff%26quot%3B%26gt%3B%E4%BA%8B%E4%BB%B6%26lt%3B%2Ffont%26gt%3B%22%20style%3D%22rounded%3D1%3BwhiteSpace%3Dwrap%3Bhtml%3D1%3BfillColor%3D%23FFB405%3BgradientColor%3Dnone%3BstrokeColor%3Dnone%3B%22%20vertex%3D%221%22%20parent%3D%221%22%3E%3CmxGeometry%20x%3D%22-230%22%20y%3D%22320%22%20width%3D%22120%22%20height%3D%2230%22%20as%3D%22geometry%22%2F%3E%3C%2FmxCell%3E%3C%2Froot%3E%3C%2FmxGraphModel%3E&lt;/span&gt;" style="rounded=1;whiteSpace=wrap;html=1;fillColor=#f5f5f5;fontColor=#333333;strokeColor=none;" vertex="1" parent="1">
          <mxGeometry x="-595" y="1144" width="755" height="146" as="geometry" />
        </mxCell>
        <mxCell id="Z79GlN73_md7SsLJKY2w-101" value="&lt;font style=&quot;font-size: 18px&quot; color=&quot;#ffffff&quot;&gt;&lt;span&gt;流量模型分析&lt;/span&gt;&lt;/font&gt;" style="rounded=1;whiteSpace=wrap;html=1;fillColor=#FFB405;strokeColor=none;fontStyle=1" vertex="1" parent="1">
          <mxGeometry x="-547.5" y="1160" width="650" height="30" as="geometry" />
        </mxCell>
        <mxCell id="Z79GlN73_md7SsLJKY2w-102" value="&lt;b&gt;&lt;font color=&quot;#ffffff&quot;&gt;简易流量漏斗&lt;/font&gt;&lt;/b&gt;" style="rounded=1;whiteSpace=wrap;html=1;strokeWidth=5;gradientColor=none;fillColor=#FFB405;strokeColor=none;" vertex="1" parent="1">
          <mxGeometry x="-547.5" y="1200" width="105" height="60" as="geometry" />
        </mxCell>
        <mxCell id="Z79GlN73_md7SsLJKY2w-103" value="&lt;font color=&quot;#ffffff&quot;&gt;&lt;b&gt;点位流量分析&lt;/b&gt;&lt;/font&gt;" style="rounded=1;whiteSpace=wrap;html=1;strokeWidth=5;gradientColor=none;fillColor=#FFB405;strokeColor=none;" vertex="1" parent="1">
          <mxGeometry x="-415" y="1200" width="105" height="60" as="geometry" />
        </mxCell>
        <mxCell id="Z79GlN73_md7SsLJKY2w-104" value="&lt;font color=&quot;#ffffff&quot;&gt;&lt;b&gt;黄金流程&lt;/b&gt;&lt;/font&gt;" style="rounded=1;whiteSpace=wrap;html=1;strokeWidth=5;gradientColor=none;fillColor=#FFB405;strokeColor=none;" vertex="1" parent="1">
          <mxGeometry x="-282.5" y="1200" width="105" height="60" as="geometry" />
        </mxCell>
        <mxCell id="Z79GlN73_md7SsLJKY2w-105" value="&lt;font color=&quot;#ffffff&quot;&gt;&lt;b&gt;用户行为分析&lt;/b&gt;&lt;/font&gt;" style="rounded=1;whiteSpace=wrap;html=1;strokeWidth=5;gradientColor=none;fillColor=#FFB405;strokeColor=none;" vertex="1" parent="1">
          <mxGeometry x="-140" y="1200" width="105" height="60" as="geometry" />
        </mxCell>
        <mxCell id="Z79GlN73_md7SsLJKY2w-106" value="&lt;font color=&quot;#ffffff&quot;&gt;&lt;b&gt;AB效果分析&lt;/b&gt;&lt;/font&gt;" style="rounded=1;whiteSpace=wrap;html=1;strokeWidth=5;gradientColor=none;fillColor=#FFB405;strokeColor=none;" vertex="1" parent="1">
          <mxGeometry y="1200" width="105" height="60" as="geometry" />
        </mxCell>
        <mxCell id="Z79GlN73_md7SsLJKY2w-111" value="" style="edgeStyle=orthogonalEdgeStyle;rounded=0;orthogonalLoop=1;jettySize=auto;html=1;fillColor=#FFB405;" edge="1" parent="1" source="Z79GlN73_md7SsLJKY2w-107" target="Z79GlN73_md7SsLJKY2w-110">
          <mxGeometry relative="1" as="geometry" />
        </mxCell>
        <mxCell id="Z79GlN73_md7SsLJKY2w-107" value="" style="shape=curlyBracket;whiteSpace=wrap;html=1;rounded=1;flipH=1;strokeColor=#FFB405;strokeWidth=5;fillColor=#FFB405;gradientColor=none;" vertex="1" parent="1">
          <mxGeometry x="210" y="290" width="20" height="50" as="geometry" />
        </mxCell>
        <mxCell id="Z79GlN73_md7SsLJKY2w-113" value="" style="edgeStyle=orthogonalEdgeStyle;rounded=0;orthogonalLoop=1;jettySize=auto;html=1;fillColor=#FFB405;" edge="1" parent="1" source="Z79GlN73_md7SsLJKY2w-108" target="Z79GlN73_md7SsLJKY2w-112">
          <mxGeometry relative="1" as="geometry" />
        </mxCell>
        <mxCell id="Z79GlN73_md7SsLJKY2w-108" value="" style="shape=curlyBracket;whiteSpace=wrap;html=1;rounded=1;flipH=1;strokeColor=#FFB405;strokeWidth=5;fillColor=#FFB405;gradientColor=none;" vertex="1" parent="1">
          <mxGeometry x="210" y="350" width="20" height="780" as="geometry" />
        </mxCell>
        <mxCell id="Z79GlN73_md7SsLJKY2w-115" value="" style="edgeStyle=orthogonalEdgeStyle;rounded=0;orthogonalLoop=1;jettySize=auto;html=1;fillColor=#FFB405;" edge="1" parent="1" source="Z79GlN73_md7SsLJKY2w-109" target="Z79GlN73_md7SsLJKY2w-114">
          <mxGeometry relative="1" as="geometry" />
        </mxCell>
        <mxCell id="Z79GlN73_md7SsLJKY2w-109" value="" style="shape=curlyBracket;whiteSpace=wrap;html=1;rounded=1;flipH=1;strokeColor=#FFB405;strokeWidth=5;fillColor=#FFB405;gradientColor=none;" vertex="1" parent="1">
          <mxGeometry x="210" y="1157" width="20" height="120" as="geometry" />
        </mxCell>
        <mxCell id="Z79GlN73_md7SsLJKY2w-110" value="&lt;b&gt;&lt;font color=&quot;#ffffff&quot; style=&quot;font-size: 18px&quot;&gt;已完成&lt;/font&gt;&lt;/b&gt;" style="ellipse;shape=cloud;whiteSpace=wrap;html=1;rounded=1;strokeColor=#FFB405;strokeWidth=5;fillColor=#FFB405;" vertex="1" parent="1">
          <mxGeometry x="250" y="253.75" width="190" height="122.5" as="geometry" />
        </mxCell>
        <mxCell id="Z79GlN73_md7SsLJKY2w-112" value="&lt;font color=&quot;#ffffff&quot;&gt;&lt;span style=&quot;font-size: 18px&quot;&gt;&lt;b&gt;待实现&lt;/b&gt;&lt;/span&gt;&lt;/font&gt;" style="ellipse;shape=cloud;whiteSpace=wrap;html=1;rounded=1;strokeColor=#FFB405;strokeWidth=5;fillColor=#FFB405;" vertex="1" parent="1">
          <mxGeometry x="260" y="677.5" width="190" height="125" as="geometry" />
        </mxCell>
        <mxCell id="Z79GlN73_md7SsLJKY2w-114" value="&lt;font color=&quot;#ffffff&quot;&gt;&lt;span style=&quot;font-size: 18px&quot;&gt;&lt;b&gt;可与其他系统对接&lt;/b&gt;&lt;/span&gt;&lt;/font&gt;" style="ellipse;shape=cloud;whiteSpace=wrap;html=1;rounded=1;strokeColor=#FFB405;strokeWidth=5;fillColor=#FFB405;" vertex="1" parent="1">
          <mxGeometry x="260" y="1154.75" width="190" height="124.5" as="geometry" />
        </mxCell>
        <mxCell id="Z79GlN73_md7SsLJKY2w-116" value="&lt;font color=&quot;#ffb405&quot; size=&quot;1&quot;&gt;&lt;b style=&quot;font-size: 30px&quot;&gt;达成埋点共识，提升埋点人效，共享流量数据&lt;/b&gt;&lt;/font&gt;" style="text;html=1;strokeColor=none;fillColor=none;align=center;verticalAlign=middle;whiteSpace=wrap;rounded=0;horizontal=1;textDirection=rtl;" vertex="1" parent="1">
          <mxGeometry x="-600" y="190" width="730" height="40" as="geometry" />
        </mxCell>
      </root>
    </mxGraphModel>
  </diagram>
</mxfile>
